#!OML:ASF F:\VICON\USERDATA\INSTALL\rory3\rory3.ASF
:FULLY-SPECIFIED
:DEGREES
16
root 1.03322 17.7944 -29.3324 -2.18567 3.06095 2.80966
lowerback 11.3052 -1.94201 -5.1199
upperback 0.0704214 -3.14329 1.75899
thorax -5.89688 -1.37209 5.25073
lowerneck -16.4581 -2.43502 -3.31004
upperneck 15.0565 -2.83706 1.76219
head 7.40786 -1.38198 0.802736
rclavicle 1.50331e-014 -9.54166e-015
rhumerus -36.0046 -23.5931 -73.5944
rradius 21.6911
rwrist 8.4142
rhand -15.4122 21.2197
rfingers 7.12502
rthumb 10.7672 -8.48438
lclavicle 1.50331e-014 -9.54166e-015
lhumerus -22.9793 -3.34341 81.4704
lradius 32.0007
lwrist 9.63259
lhand -30.6195 20.3466
lfingers 7.12502
lthumb -3.91566 50.2904
rfemur -27.5852 7.7018 14.9344
rtibia 14.8795
rfoot -10.0331 -15.0446
rtoes -5.14658
lfemur 12.47 -1.75569 -27.1529
ltibia 14.3817
lfoot -16.0568 -7.12927
ltoes 1.77353
17
root 1.02133 17.7842 -29.1635 -2.24508 2.94445 2.73579
lowerback 11.3217 -2.10353 -5.39648
upperback -0.249133 -3.38263 2.07554
thorax -6.18198 -1.45835 5.79515
lowerneck -14.6197 -2.22217 -3.86355
upperneck 14.5576 -2.48834 1.78958
head 6.92759 -1.25402 0.956903
rclavicle -1.58034e-014 -1.11319e-014
rhumerus -36.8366 -22.5512 -73.0707
rradius 21.6087
rwrist 8.28351
rhand -15.138 20.8723
rfingers 7.12502
rthumb 11.0317 -8.81776
lclavicle -1.58034e-014 -1.11319e-014
lhumerus -23.7914 -2.30284 81.5409
lradius 32.3043
lwrist 9.66332
lhand -30.6466 21.4419
lfingers 7.12502
lthumb -3.9419 51.3851
rfemur -27.5995 6.86243 15.4865
rtibia 15.4887
rfoot -9.58737 -13.7538
rtoes -2.83799
lfemur 12.8813 -1.91416 -27.0616
ltibia 14.9084
lfoot -16.2101 -7.08988
ltoes 1.12826
18
root 1.00815 17.769 -28.9948 -2.25876 3.08164 2.55703
lowerback 11.2451 -1.7536 -4.60266
upperback 0.561341 -2.8212 1.62935
thorax -5.41341 -1.25678 4.7512
lowerneck -17.3515 -2.71777 -2.81807
upperneck 14.9051 -3.27991 1.58221
head 7.51128 -1.57595 0.604266
rclavicle 1.10325e-014 -7.95139e-016
rhumerus -36.1077 -25.3178 -73.0956
rradius 21.4
rwrist 8.84482
rhand -14.7691 21.3212
rfingers 7.12502
rthumb 11.3874 -8.34954
lclavicle 1.10325e-014 -7.95139e-016
lhumerus -21.5609 -3.58485 81.2453
lradius 32.2701
lwrist 9.97106
lhand -30.3341 21.8302
lfingers 7.12502
lthumb -3.64007 51.7788
rfemur -27.8657 5.79614 16.1993
rtibia 16.7006
rfoot -8.86918 -12.6422
rtoes -1.75504
lfemur 13.2542 -2.27591 -26.8504
ltibia 15.3954
lfoot -16.2772 -6.94883
ltoes -0.984345
19
root 0.997552 17.757 -28.8207 -2.27775 3.16474 2.38131
lowerback 11.3127 -1.63542 -4.12541
upperback 0.940964 -2.60862 1.47198
thorax -5.10255 -1.18171 4.27428
lowerneck -18.6516 -2.88292 -2.24249
upperneck 14.9295 -3.56544 1.2903
head 7.73148 -1.69869 0.365179
rclavicle 4.22914e-014 -1.55052e-014
rhumerus -35.7313 -26.7215 -73.0623
rradius 21.1085
rwrist 9.48852
rhand -14.4348 21.8123
rfingers 7.12502
rthumb 11.7098 -7.84042
lclavicle 4.22914e-014 -1.55052e-014
lhumerus -20.4734 -3.59814 81.0451
lradius 32.2982
lwrist 9.87443
lhand -30.0799 21.3896
lfingers 7.12502
lthumb -3.39462 51.3423
rfemur -28.1394 4.94371 16.8718
rtibia 18.1504
rfoot -8.01441 -11.8328
rtoes -0.940518
lfemur 13.5604 -2.64281 -26.6639
ltibia 16.017
lfoot -16.267 -6.89225
ltoes -2.16026
20
root 0.985785 17.7391 -28.6426 -2.33583 2.94126 2.36368
lowerback 11.2664 -1.60505 -4.04771
upperback 0.980225 -2.55689 1.46016
thorax -5.04452 -1.16049 4.20693
lowerneck -18.3505 -2.79075 -2.28315
upperneck 14.7405 -3.43755 1.31205
head 7.61626 -1.64032 0.39924
rclavicle 2.78299e-015 -2.14687e-014
rhumerus -35.7691 -26.6034 -73.1602
rradius 20.799
rwrist 10.0742
rhand -15.3194 21.5519
rfingers 7.12502
rthumb 10.8566 -8.14746
lclavicle 2.78299e-015 -2.14687e-014
lhumerus -20.4608 -3.09452 80.9558
lradius 32.4474
lwrist 9.94739
lhand -30.0576 22.0451
lfingers 7.12502
lthumb -3.37306 51.9982
rfemur -28.3168 4.91653 17.2168
rtibia 19.6193
rfoot -7.54896 -11.7725
rtoes 0.206698
lfemur 13.9105 -2.85674 -26.7224
ltibia 16.7544
lfoot -16.1548 -6.68423
ltoes -3.076
